<svg width="144" height="56" viewBox="0 0 144 56" fill="none" xmlns="http://www.w3.org/2000/svg">
<path d="M52.6701 23.0637V9.17043H58.5361C58.6712 9.17043 58.8513 9.17686 59.0764 9.18973C59.308 9.19616 59.5138 9.21545 59.6939 9.24762C60.5236 9.37626 61.2022 9.64962 61.7297 10.0677C62.2635 10.4858 62.6559 11.0132 62.9067 11.65C63.1576 12.2803 63.283 12.9847 63.283 13.7629C63.283 14.9271 62.9936 15.9241 62.4147 16.7539C61.8358 17.5772 60.9289 18.0853 59.6939 18.2783L58.5361 18.3554H55.2944V23.0637H52.6701ZM60.5043 23.0637L57.7643 17.4099L60.4658 16.8889L63.476 23.0637H60.5043ZM55.2944 15.9048H58.4204C58.5554 15.9048 58.7034 15.8984 58.8642 15.8855C59.025 15.8727 59.1729 15.8469 59.308 15.8083C59.6617 15.7119 59.9351 15.5511 60.1281 15.3259C60.321 15.0944 60.4529 14.8403 60.5236 14.5637C60.6008 14.2807 60.6394 14.0138 60.6394 13.7629C60.6394 13.5121 60.6008 13.2484 60.5236 12.9718C60.4529 12.6888 60.321 12.4347 60.1281 12.2096C59.9351 11.978 59.6617 11.814 59.308 11.7175C59.1729 11.6789 59.025 11.6532 58.8642 11.6403C58.7034 11.6275 58.5554 11.6211 58.4204 11.6211H55.2944V15.9048ZM65.79 11.1965V8.88099H68.4143V11.1965H65.79ZM65.79 23.0637V12.6438H68.4143V23.0637H65.79ZM78.4078 23.0637V18.1432C78.4078 17.9052 78.3949 17.6029 78.3692 17.2363C78.3435 16.8632 78.2631 16.4901 78.128 16.1171C77.9929 15.744 77.771 15.4321 77.4623 15.1812C77.16 14.9304 76.729 14.8049 76.1694 14.8049C75.9443 14.8049 75.7031 14.8403 75.4458 14.9111C75.1885 14.9818 74.9473 15.1201 74.7222 15.3259C74.4971 15.5253 74.3105 15.8212 74.1626 16.2136C74.0211 16.6059 73.9504 17.1269 73.9504 17.7766L72.4452 17.0626C72.4452 16.2393 72.6125 15.4674 72.9469 14.747C73.2814 14.0266 73.7831 13.4445 74.4521 13.0007C75.1274 12.5569 75.9765 12.335 76.9992 12.335C77.816 12.335 78.4818 12.4733 78.9963 12.7499C79.5109 13.0265 79.9097 13.377 80.1927 13.8015C80.4821 14.226 80.688 14.6699 80.8102 15.133C80.9324 15.5896 81.0063 16.0077 81.0321 16.3872C81.0578 16.7667 81.0707 17.0433 81.0707 17.217V23.0637H78.4078ZM71.2875 23.0637V12.6438H73.6223V16.0978H73.9504V23.0637H71.2875ZM82.0305 27.6948V25.2442H82.4936C83.0918 25.2442 83.5002 25.1091 83.7189 24.839C83.944 24.5688 84.0566 24.1829 84.0566 23.6812V12.6438H86.6809V24.9548C86.6809 25.7845 86.4204 26.447 85.8994 26.9423C85.3848 27.444 84.6869 27.6948 83.8058 27.6948H82.0305ZM84.0566 11.1965V8.88099H86.6809V11.1965H84.0566ZM92.2726 23.3532C91.5265 23.3532 90.8929 23.2117 90.3719 22.9286C89.8573 22.6392 89.465 22.2565 89.1948 21.7805C88.9311 21.2981 88.7993 20.7675 88.7993 20.1886C88.7993 19.7062 88.8732 19.2656 89.0212 18.8668C89.1691 18.468 89.4071 18.1175 89.7351 17.8151C90.0696 17.5064 90.5166 17.2491 91.0762 17.0433C91.4621 16.9018 91.922 16.7764 92.4559 16.667C92.9898 16.5577 93.5944 16.4548 94.2697 16.3583C94.9451 16.2554 95.688 16.1428 96.4985 16.0206L95.5529 16.5416C95.5529 15.9241 95.405 15.4707 95.1091 15.1812C94.8133 14.8918 94.318 14.747 93.6233 14.747C93.2374 14.747 92.8354 14.8403 92.4173 15.0268C91.9992 15.2134 91.7066 15.5446 91.5393 16.0206L89.1659 15.268C89.4296 14.4061 89.9249 13.705 90.6517 13.1648C91.3785 12.6245 92.3691 12.3543 93.6233 12.3543C94.5431 12.3543 95.36 12.4958 96.0739 12.7788C96.7879 13.0618 97.3282 13.5507 97.6948 14.2453C97.9006 14.6313 98.0229 15.0172 98.0615 15.4031C98.1 15.789 98.1193 16.22 98.1193 16.696V23.0637H95.8231V20.9218L96.1511 21.3657C95.643 22.0667 95.093 22.5749 94.5013 22.8901C93.916 23.1988 93.1731 23.3532 92.2726 23.3532ZM92.8322 21.2885C93.3146 21.2885 93.7198 21.2048 94.0478 21.0376C94.3823 20.8639 94.646 20.6678 94.839 20.4491C95.0384 20.2304 95.1734 20.0471 95.2442 19.8991C95.3793 19.6161 95.4565 19.2881 95.4758 18.915C95.5015 18.5355 95.5143 18.2204 95.5143 17.9695L96.2862 18.1625C95.5079 18.2911 94.8776 18.4005 94.3952 18.4905C93.9128 18.5741 93.5236 18.6513 93.2277 18.7221C92.9319 18.7928 92.6714 18.87 92.4462 18.9536C92.189 19.0565 91.9799 19.1691 91.8191 19.2913C91.6647 19.4071 91.549 19.5357 91.4718 19.6772C91.401 19.8187 91.3657 19.9763 91.3657 20.15C91.3657 20.388 91.4235 20.5938 91.5393 20.7675C91.6615 20.9347 91.832 21.0633 92.0507 21.1534C92.2694 21.2434 92.5299 21.2885 92.8322 21.2885ZM107.729 23.0637V18.1432C107.729 17.9052 107.716 17.6029 107.69 17.2363C107.665 16.8632 107.584 16.4901 107.449 16.1171C107.314 15.744 107.092 15.4321 106.784 15.1812C106.481 14.9304 106.05 14.8049 105.491 14.8049C105.266 14.8049 105.024 14.8403 104.767 14.9111C104.51 14.9818 104.269 15.1201 104.043 15.3259C103.818 15.5253 103.632 15.8212 103.484 16.2136C103.342 16.6059 103.272 17.1269 103.272 17.7766L101.766 17.0626C101.766 16.2393 101.934 15.4674 102.268 14.747C102.603 14.0266 103.104 13.4445 103.773 13.0007C104.449 12.5569 105.298 12.335 106.32 12.335C107.137 12.335 107.803 12.4733 108.318 12.7499C108.832 13.0265 109.231 13.377 109.514 13.8015C109.803 14.226 110.009 14.6699 110.131 15.133C110.254 15.5896 110.328 16.0077 110.353 16.3872C110.379 16.7667 110.392 17.0433 110.392 17.217V23.0637H107.729ZM100.609 23.0637V12.6438H102.944V16.0978H103.272V23.0637H100.609ZM113.088 11.1965V8.88099H115.713V11.1965H113.088ZM113.088 23.0637V12.6438H115.713V23.0637H113.088Z" fill="#32823A"/>
<path d="M70.2137 47.5745L65.9686 33.6812H68.67L72.1433 45.1045L75.6746 33.6812H78.376L74.1309 47.5745H70.2137ZM79.6455 35.7073V33.3917H82.2698V35.7073H79.6455ZM79.6455 47.5745V37.1545H82.2698V47.5745H79.6455ZM89.2338 47.8639C87.9216 47.8639 86.8603 47.568 86.0499 46.9763C85.2459 46.3781 84.7571 45.5355 84.5834 44.4485L87.2656 44.0433C87.3749 44.5321 87.6161 44.9148 87.9892 45.1914C88.3687 45.468 88.8479 45.6062 89.4267 45.6062C89.9027 45.6062 90.2693 45.5162 90.5266 45.3361C90.7839 45.1496 90.9126 44.8923 90.9126 44.5643C90.9126 44.3584 90.8611 44.1944 90.7582 44.0722C90.6553 43.9436 90.4237 43.8181 90.0635 43.6959C89.7098 43.5737 89.1566 43.4129 88.404 43.2135C87.555 42.9948 86.8764 42.7504 86.3683 42.4803C85.8602 42.2101 85.4935 41.8885 85.2684 41.5154C85.0433 41.136 84.9307 40.6793 84.9307 40.1454C84.9307 39.4765 85.1012 38.8976 85.4421 38.4088C85.783 37.9135 86.2622 37.534 86.8796 37.2703C87.5036 37.0001 88.2368 36.8651 89.0794 36.8651C89.8963 36.8651 90.6199 36.9905 91.2502 37.2413C91.8806 37.4922 92.3887 37.8492 92.7746 38.3123C93.167 38.7754 93.4082 39.3221 93.4982 39.9524L90.8161 40.4349C90.771 40.0489 90.6038 39.7434 90.3144 39.5183C90.0249 39.2932 89.6326 39.1613 89.1373 39.1227C88.6549 39.0906 88.2658 39.1549 87.9699 39.3157C87.6804 39.4765 87.5357 39.708 87.5357 40.0103C87.5357 40.1904 87.5968 40.3416 87.719 40.4638C87.8477 40.586 88.1082 40.7114 88.5005 40.8401C88.8993 40.9687 89.5039 41.136 90.3144 41.3418C91.1055 41.5476 91.7391 41.7888 92.215 42.0654C92.6975 42.3355 93.048 42.6636 93.2667 43.0495C93.4854 43.429 93.5947 43.8889 93.5947 44.4292C93.5947 45.4969 93.2088 46.3363 92.437 46.9473C91.6651 47.5584 90.5974 47.8639 89.2338 47.8639ZM95.9079 35.7073V33.3917H98.5322V35.7073H95.9079ZM95.9079 47.5745V37.1545H98.5322V47.5745H95.9079ZM107.677 47.5745C106.956 47.7095 106.249 47.7674 105.554 47.7481C104.866 47.7353 104.248 47.6163 103.702 47.3911C103.161 47.1596 102.75 46.7897 102.467 46.2816C102.209 45.8056 102.074 45.3232 102.061 44.8344C102.049 44.3391 102.042 43.7795 102.042 43.1556V34.2601H104.666V43.0013C104.666 43.4065 104.67 43.7731 104.676 44.1011C104.689 44.4227 104.756 44.68 104.879 44.873C105.11 45.2396 105.48 45.439 105.988 45.4712C106.496 45.5033 107.059 45.4776 107.677 45.394V47.5745ZM100.267 39.1806V37.1545H107.677V39.1806H100.267ZM114.122 47.8639C113.074 47.8639 112.154 47.6291 111.363 47.1596C110.572 46.6901 109.954 46.0436 109.511 45.2203C109.073 44.3906 108.854 43.4386 108.854 42.3645C108.854 41.2775 109.08 40.3223 109.53 39.499C109.98 38.6692 110.601 38.0228 111.392 37.5597C112.183 37.0966 113.093 36.8651 114.122 36.8651C115.171 36.8651 116.091 37.0998 116.882 37.5694C117.679 38.0389 118.3 38.6885 118.744 39.5183C119.188 40.3416 119.409 41.2903 119.409 42.3645C119.409 43.4451 119.184 44.4002 118.734 45.23C118.29 46.0533 117.67 46.6997 116.872 47.1692C116.081 47.6324 115.164 47.8639 114.122 47.8639ZM114.122 45.4133C114.965 45.4133 115.592 45.1303 116.004 44.5643C116.422 43.9918 116.631 43.2585 116.631 42.3645C116.631 41.4383 116.419 40.6986 115.994 40.1454C115.576 39.5923 114.952 39.3157 114.122 39.3157C113.55 39.3157 113.08 39.4443 112.714 39.7016C112.347 39.9589 112.074 40.3159 111.894 40.7725C111.72 41.2292 111.633 41.7599 111.633 42.3645C111.633 43.2971 111.842 44.04 112.26 44.5932C112.685 45.1399 113.305 45.4133 114.122 45.4133ZM121.531 47.5745V37.1545H123.847V39.7016L123.596 39.3736C123.731 39.0134 123.911 38.6853 124.136 38.3895C124.361 38.0936 124.638 37.8492 124.966 37.6562C125.217 37.5018 125.49 37.3828 125.786 37.2992C126.082 37.2092 126.387 37.1545 126.703 37.1352C127.018 37.1095 127.333 37.1159 127.648 37.1545V39.6051C127.359 39.5151 127.021 39.4861 126.635 39.5183C126.256 39.544 125.911 39.6308 125.603 39.7788C125.294 39.9203 125.033 40.11 124.821 40.348C124.609 40.5796 124.448 40.8562 124.339 41.1778C124.229 41.4929 124.175 41.8499 124.175 42.2487V47.5745H121.531Z" fill="#32823A"/>
<path d="M21.7405 8.43809L0 55.1489H63.5745L34.2577 0L24.7051 16.5748L21.7405 8.43809Z" fill="#32823A"/>
</svg>
